<svg data-name="Group 135" xmlns="http://www.w3.org/2000/svg" width="306.444" height="247.416">
    <defs>
      <linearGradient id="a" x1="1.703" y1=".5" x2="-.116" y2="3.982" gradientUnits="objectBoundingBox">
        <stop offset="0" stop-color="#f50321"/>
        <stop offset="1" stop-color="#bc0018"/>
      </linearGradient>
    </defs>
    <path data-name="Path 368" d="M293.254 1048.447c-29.914-3.01-123.523-23.975-140.711-100.447L89 967.689s74.483 103.132 204.254 80.758z" transform="translate(-89 -804.208)" fill="url(#a)"/>
    <path data-name="Path 369" d="M303.042 1018.236c-30.751-11.113-137.286-75.673-66.583-196.494L134 868.011s2.685 33.114 7.16 47.433l32.219-9.845s1.635 96.638 129.663 112.637z" transform="translate(-93.726 -782.392)" fill="url(#a)"/>
    <g data-name="Group 117">
      <path data-name="Path 370" d="M344.89 990.023c-39.444 0-71.421-33.061-71.421-73.844s31.976-73.845 71.421-73.845a69.454 69.454 0 0139.944 12.622l22.524-34.519a107.908 107.908 0 00-62.462-19.9c-61.277 0-110.951 51.362-110.951 114.718s49.675 114.717 110.955 114.717a107.874 107.874 0 0061.427-19.179l-21.582-33.328a69.45 69.45 0 01-39.855 12.558z" transform="translate(-100.915 -800.537)" fill="url(#a)"/>
    </g>
  </svg>